<svg width="550" height="193" viewBox="0 0 550 193" fill="none" xmlns="http://www.w3.org/2000/svg">
<path d="M549 90.5C549 102.552 541.578 114.198 527.775 124.937C513.984 135.667 493.967 145.374 469.142 153.543C428.848 166.804 376.034 175.969 317 178.95V179.951C448.943 173.297 550 135.782 550 90.5C550 40.5182 426.878 0 275 0C123.122 0 0 40.5182 0 90.5C0 135.897 101.568 173.486 234 180.001V179C174.563 176.072 121.38 166.879 80.8582 153.543C56.0331 145.374 36.0155 135.667 22.2249 124.937C8.42166 114.198 1 102.552 1 90.5C1 78.4479 8.42166 66.8023 22.2249 56.0626C36.0155 45.3327 56.0331 35.6265 80.8582 27.4567C130.498 11.1208 199.137 1 275 1C350.863 1 419.502 11.1208 469.142 27.4567C493.967 35.6265 513.984 45.3327 527.775 56.0626C541.578 66.8023 549 78.4479 549 90.5Z" fill="white"/>
<path d="M258.015 185.016C258.015 187.296 257.307 189.072 255.891 190.344C254.475 191.616 252.675 192.252 250.491 192.252C248.355 192.252 246.591 191.688 245.199 190.56C243.807 189.408 243.063 187.716 242.967 185.484H245.559C245.655 186.996 246.159 188.124 247.071 188.868C248.007 189.588 249.147 189.948 250.491 189.948C251.907 189.948 253.083 189.504 254.019 188.616C254.955 187.728 255.423 186.516 255.423 184.98C255.423 181.668 253.743 180.012 250.383 180.012H249.843V177.744H250.383C251.919 177.744 253.059 177.348 253.803 176.556C254.571 175.74 254.955 174.588 254.955 173.1C254.955 171.612 254.535 170.46 253.695 169.644C252.855 168.828 251.787 168.42 250.491 168.42C249.147 168.42 248.067 168.804 247.251 169.572C246.459 170.34 246.003 171.384 245.883 172.704H243.291C243.435 170.664 244.167 169.056 245.487 167.88C246.831 166.704 248.499 166.116 250.491 166.116C252.579 166.116 254.271 166.752 255.567 168.024C256.887 169.296 257.547 170.976 257.547 173.064C257.547 175.8 256.395 177.696 254.091 178.752C256.707 179.736 258.015 181.824 258.015 185.016Z" fill="white"/>
<path d="M276.824 184.62C276.824 186.828 276.176 188.652 274.88 190.092C273.584 191.508 271.868 192.216 269.732 192.216C267.572 192.216 265.844 191.544 264.548 190.2C263.252 188.856 262.604 187.068 262.604 184.836C262.604 183.156 263.144 181.236 264.224 179.076L270.524 166.368H273.188L267.464 177.888C268.256 177.528 269.156 177.348 270.164 177.348C272.156 177.348 273.764 178.032 274.988 179.4C276.212 180.744 276.824 182.484 276.824 184.62ZM274.232 184.728C274.232 183.24 273.824 182.004 273.008 181.02C272.216 180.036 271.112 179.544 269.696 179.544C268.328 179.544 267.236 180.012 266.42 180.948C265.604 181.884 265.196 183.144 265.196 184.728C265.196 186.288 265.604 187.548 266.42 188.508C267.236 189.444 268.328 189.912 269.696 189.912C271.064 189.912 272.156 189.444 272.972 188.508C273.812 187.548 274.232 186.288 274.232 184.728Z" fill="white"/>
<path d="M295.488 185.16C295.488 187.248 294.816 188.952 293.472 190.272C292.152 191.568 290.484 192.216 288.468 192.216C286.428 192.216 284.748 191.568 283.428 190.272C282.108 188.976 281.448 187.272 281.448 185.16V173.208C281.448 171.096 282.108 169.392 283.428 168.096C284.748 166.8 286.428 166.152 288.468 166.152C290.484 166.152 292.152 166.812 293.472 168.132C294.816 169.428 295.488 171.12 295.488 173.208V185.16ZM292.896 185.016V173.352C292.896 171.912 292.5 170.736 291.708 169.824C290.94 168.912 289.86 168.456 288.468 168.456C287.076 168.456 285.984 168.912 285.192 169.824C284.424 170.736 284.04 171.912 284.04 173.352V185.016C284.04 186.456 284.424 187.632 285.192 188.544C285.984 189.456 287.076 189.912 288.468 189.912C289.86 189.912 290.94 189.456 291.708 188.544C292.5 187.632 292.896 186.456 292.896 185.016Z" fill="white"/>
<path d="M310.409 167.772C311.561 168.924 312.137 170.316 312.137 171.948C312.137 173.58 311.561 174.972 310.409 176.124C309.257 177.276 307.865 177.852 306.233 177.852C304.601 177.852 303.197 177.276 302.021 176.124C300.869 174.972 300.293 173.58 300.293 171.948C300.293 170.316 300.869 168.924 302.021 167.772C303.197 166.62 304.601 166.044 306.233 166.044C307.865 166.044 309.257 166.62 310.409 167.772ZM308.861 174.684C309.581 173.94 309.941 173.028 309.941 171.948C309.941 170.868 309.581 169.968 308.861 169.248C308.141 168.504 307.253 168.132 306.197 168.132C305.141 168.132 304.253 168.504 303.533 169.248C302.837 169.968 302.489 170.868 302.489 171.948C302.489 173.028 302.849 173.94 303.569 174.684C304.289 175.404 305.177 175.764 306.233 175.764C307.289 175.764 308.165 175.404 308.861 174.684Z" fill="white"/>
</svg>
