<svg width="41" height="27" viewBox="0 0 41 27" fill="none" xmlns="http://www.w3.org/2000/svg">
<path d="M40.0141 6.45214C40.0141 6.45214 39.6218 3.8842 38.4162 2.75356C36.8863 1.27151 35.1728 1.26278 34.387 1.17875C28.7588 0.800049 20.317 0.800049 20.317 0.800049H20.2981C20.2981 0.800049 11.8563 0.800049 6.22927 1.17875C5.44355 1.26278 3.7313 1.27151 2.20009 2.75356C0.995731 3.8842 0.602241 6.45214 0.602241 6.45214C0.602241 6.45214 0.199951 9.46535 0.199951 12.4786V15.303C0.199951 18.3184 0.602241 21.3305 0.602241 21.3305C0.602241 21.3305 0.994473 23.8973 2.20009 25.0258C3.7313 26.5078 5.73898 26.4631 6.63407 26.618C9.85113 26.904 20.3082 26.9924 20.3082 26.9924C20.3082 26.9924 28.7588 26.9793 34.387 26.605C35.1728 26.5176 36.8863 26.5089 38.4162 25.0269C39.6206 23.8984 40.0141 21.3316 40.0141 21.3316C40.0141 21.3316 40.4164 18.3184 40.4164 15.3041V12.4796C40.4164 9.46534 40.0141 6.45214 40.0141 6.45214Z" fill="#E02F2F"/>
<path d="M15.2854 7.34814V20.4443L27.857 13.8962L15.2854 7.34814Z" fill="white"/>
</svg>
