<svg width="41" height="28" viewBox="0 0 41 28" fill="none" xmlns="http://www.w3.org/2000/svg">
<path d="M40.5973 6.6433C40.5973 6.6433 40.2051 4.07536 38.9995 2.94472C37.4695 1.46267 35.756 1.45394 34.9703 1.36991C29.342 0.991211 20.9002 0.991211 20.9002 0.991211H20.8813C20.8813 0.991211 12.4395 0.991211 6.81252 1.36991C6.0268 1.45394 4.31455 1.46267 2.78334 2.94472C1.57898 4.07536 1.18549 6.6433 1.18549 6.6433C1.18549 6.6433 0.783203 9.65651 0.783203 12.6697V15.4941C0.783203 18.5095 1.18549 21.5216 1.18549 21.5216C1.18549 21.5216 1.57773 24.0885 2.78334 25.2169C4.31455 26.699 6.32223 26.6542 7.21732 26.8092C10.4344 27.0951 20.8914 27.1835 20.8914 27.1835C20.8914 27.1835 29.342 27.1704 34.9703 26.7961C35.756 26.7088 37.4695 26.7001 38.9995 25.218C40.2038 24.0896 40.5973 21.5227 40.5973 21.5227C40.5973 21.5227 40.9996 18.5095 40.9996 15.4952V12.6708C40.9996 9.65651 40.5973 6.6433 40.5973 6.6433Z" fill="#DD2032"/>
<path d="M14.5901 18.9912H13.5821L8.29007 10.9972V18.9912H7.22607V9.02319H8.23407L13.5261 16.9892V9.02319H14.5901V18.9912Z" fill="white"/>
<path d="M23.668 18.9912H17.48V9.02319H23.668V9.97519H18.544V13.4892H22.912V14.4412H18.544V18.0392H23.668V18.9912Z" fill="white"/>
<path d="M36.1645 9.02319L33.6165 18.9912H32.6225L30.4105 11.0112L28.1985 18.9912H27.2045L24.6565 9.02319H25.7905L27.7365 17.0592L29.9345 9.02319H30.8865L33.0845 17.0592L35.0305 9.02319H36.1645Z" fill="white"/>
</svg>
