<svg width="88" height="84" viewBox="0 0 88 84" fill="none" xmlns="http://www.w3.org/2000/svg">
<rect x="1.30005" y="0.500122" width="86.0857" height="83" rx="19.9" stroke="#DD2032"/>
<path d="M26.4867 51.9951C29.1676 53.9766 34.1215 57.7066 39.7747 53.4521C45.4862 49.1976 48.9248 46.3419 60.8141 49.489C64.6023 50.2467 66.409 48.44 65.2434 45.0597C64.0778 41.6794 58.308 31.8882 39.8913 33.5201C21.4163 35.152 22.3488 45.6425 23.6892 48.2068C25.0297 50.7712 26.4867 51.9951 26.4867 51.9951Z" stroke="white" stroke-miterlimit="10" stroke-linecap="round" stroke-linejoin="round"/>
<path d="M18.3854 45.3512C18.3271 50.1302 17.9774 54.6178 20.2504 58.4061C22.5233 62.136 28.1183 65.2832 35.5782 65.2832C43.0381 65.2832 45.0197 61.4367 46.7681 60.5042C48.5165 59.5134 51.8968 57.9398 56.6758 59.3968C61.4548 60.8539 65.2431 62.3109 67.4577 60.3876C69.6724 58.4643 69.7307 55.0841 69.6724 47.5076C69.6141 40.8636 62.737 29.4406 42.6884 29.4406C22.6399 29.4406 18.0357 40.2225 18.3854 45.3512Z" stroke="white" stroke-miterlimit="10" stroke-linecap="round" stroke-linejoin="round"/>
<path d="M18.4436 45.2929C19.143 49.7805 24.5631 59.1637 32.7224 59.4551C39.7161 59.6882 42.6301 56.7159 44.5534 55.084C47.1177 52.9277 51.1974 51.3541 57.2586 52.8694C63.3198 54.3847 71.1877 57.1821 69.4393 45.118" stroke="white" stroke-miterlimit="10" stroke-linecap="round" stroke-linejoin="round"/>
<path d="M30.6829 26.8761C31.9068 24.778 32.4896 23.0295 31.5571 20.6983C30.6246 18.3671 31.5571 16.5604 33.0141 15.2782" stroke="white" stroke-miterlimit="10" stroke-linecap="round" stroke-linejoin="round"/>
<path d="M42.5134 20.9315C43.7373 18.8334 44.3201 17.085 43.3876 14.7537C42.4551 12.4225 43.3876 10.6158 44.8447 9.33362" stroke="white" stroke-miterlimit="10" stroke-linecap="round" stroke-linejoin="round"/>
<path d="M54.6946 26.6429C55.9185 24.5448 56.5013 22.7964 55.5688 20.4652C54.6363 18.1339 55.5688 16.3272 57.0258 15.045" stroke="white" stroke-miterlimit="10" stroke-linecap="round" stroke-linejoin="round"/>
<path d="M32.7806 39.5813L29.9832 49.1393" stroke="white" stroke-miterlimit="10" stroke-linecap="round" stroke-linejoin="round"/>
<path d="M39.949 41.7375L37.2681 50.7128" stroke="white" stroke-miterlimit="10" stroke-linecap="round" stroke-linejoin="round"/>
<path d="M49.8571 37.9493L47.7007 45.4093" stroke="white" stroke-miterlimit="10" stroke-linecap="round" stroke-linejoin="round"/>
<path d="M57.4331 40.2223L55.8013 45.5258" stroke="white" stroke-miterlimit="10" stroke-linecap="round" stroke-linejoin="round"/>
</svg>
