<svg width="88" height="85" viewBox="0 0 88 85" fill="none" xmlns="http://www.w3.org/2000/svg">
<rect x="1.41193" y="1.61127" width="85.8035" height="82.7193" rx="20.4581" stroke="#DD2032" stroke-width="1.23988"/>
<path d="M31.3598 30.3593L23.8452 32.2233" stroke="white" stroke-width="1.23988" stroke-miterlimit="10" stroke-linecap="round" stroke-linejoin="round"/>
<path d="M46.7969 30.3593L54.3114 32.2233" stroke="white" stroke-width="1.23988" stroke-miterlimit="10" stroke-linecap="round" stroke-linejoin="round"/>
<path d="M33.1076 23.3691L26.9329 18.6506" stroke="white" stroke-width="1.23988" stroke-miterlimit="10" stroke-linecap="round" stroke-linejoin="round"/>
<path d="M45.3982 23.3691L51.573 18.6506" stroke="white" stroke-width="1.23988" stroke-miterlimit="10" stroke-linecap="round" stroke-linejoin="round"/>
<path d="M39.1072 20.6311V12.8835" stroke="white" stroke-width="1.23988" stroke-miterlimit="10" stroke-linecap="round" stroke-linejoin="round"/>
<path d="M35.9039 46.2623C35.7874 41.5438 35.7874 29.8933 35.7874 28.8448C35.7874 27.6215 36.7776 25.8157 39.0495 25.8157C41.4961 25.8157 42.2534 27.971 42.2534 28.7865C42.2534 30.0681 42.3699 46.6118 42.3699 46.6118" stroke="white" stroke-width="1.23988" stroke-miterlimit="10" stroke-linecap="round" stroke-linejoin="round"/>
<path d="M42.3694 46.5536C42.3694 42.1264 42.4276 41.4856 42.4859 40.4371C42.6024 39.0973 43.4762 37.4662 45.748 37.4662C48.1946 37.4662 48.9519 39.6215 48.9519 40.4371C48.9519 41.7186 48.9519 44.9225 48.9519 44.9225" stroke="white" stroke-width="1.23988" stroke-miterlimit="10" stroke-linecap="round" stroke-linejoin="round"/>
<path d="M55.6515 46.6701C55.6515 43.9322 55.6515 43.1749 55.5933 42.1264C55.4768 40.7866 54.603 39.1555 52.3311 39.1555C49.8845 39.1555 49.0107 41.3691 49.0107 42.2429C49.0107 43.5244 49.0107 45.0973 49.0107 45.0973" stroke="white" stroke-width="1.23988" stroke-miterlimit="10" stroke-linecap="round" stroke-linejoin="round"/>
<path d="M55.6511 45.4467C55.6511 44.5729 56.5249 42.3593 58.9715 42.3593C61.2433 42.3593 62.1754 43.9904 62.2336 45.3302C62.2919 46.3787 62.2919 47.136 62.4666 51.5632C62.7579 59.369 60.253 68.9224 48.5443 68.9224C41.2628 68.9224 37.5928 63.7379 34.7385 59.4855C31.7676 55.0583 27.5734 48.3593 26.2919 45.9127C24.9521 43.4661 25.3598 41.7768 26.0589 41.1942C27.1074 40.204 29.554 39.5049 32.9909 43.1748C34.7967 44.9224 35.4375 45.5632 35.4375 45.5632" stroke="white" stroke-width="1.23988" stroke-miterlimit="10" stroke-linecap="round" stroke-linejoin="round"/>
</svg>
