<svg width="88" height="84" viewBox="0 0 88 84" fill="none" xmlns="http://www.w3.org/2000/svg">
<rect x="1.30005" y="0.499756" width="86.0857" height="83" rx="19.73" stroke="#DD2032"/>
<path d="M60.2885 42.9614C56.7334 41.5044 52.7703 41.4461 50.2642 44.6515C47.7582 47.857 44.0865 50.9458 35.9855 51.1207C27.9427 51.2955 25.087 49.7802 22.6975 46.8662C20.3079 43.9522 23.8631 35.2683 25.1452 32.9954C26.4274 30.7224 29.3415 26.2348 43.5037 28.7992C57.6659 31.3635 69.1472 36.1425 70.5459 39.5228C71.187 40.8633 65.8835 45.2926 60.2885 42.9614Z" stroke="white" stroke-miterlimit="10" stroke-linecap="round" stroke-linejoin="round"/>
<path d="M21.8 44.3996C21.8583 45.9732 21.4163 53.5686 27.5941 55.2005C33.7718 56.8323 44.5537 56.0164 47.934 52.0533C51.3143 48.0902 52.1885 46.5749 56.3265 46.9246C60.4644 47.2743 62.7956 50.0135 64.6606 49.4307C64.6606 49.4307 69.0899 47.9736 70.7218 45.351C71.0715 44.7682 70.7218 39.8772 70.7218 39.8772" stroke="white" stroke-miterlimit="10" stroke-linecap="round" stroke-linejoin="round"/>
<path d="M39.9494 30.4892C38.3758 30.1978 30.9741 29.3819 27.6521 33.6364C24.3301 37.8909 22.6983 44.768 26.1951 46.5164C29.692 48.2648 36.336 48.6728 40.299 47.5072C44.2621 46.3416 48.1669 44.2435 46.7099 41.446C45.3112 38.5902 44.3204 37.3663 42.3971 37.3663C40.4739 37.3663 39.7162 36.0842 40.0076 33.9861C40.299 31.888 40.707 30.7223 40.707 30.7223" stroke="white" stroke-miterlimit="10" stroke-linecap="round" stroke-linejoin="round"/>
<path d="M48.8082 41.3878C47.7008 40.0473 45.3696 35.9676 43.7377 35.21C42.1642 34.4524 41.3482 34.9186 41.6396 30.7224C41.6979 29.615 61.3385 34.5689 67.5163 39.2314C68.2739 40.0473 67.8077 40.9798 66.001 41.5043C64.2525 41.9706 63.1452 42.5534 60.1729 41.2129C57.1423 39.8725 54.4614 38.5903 49.391 41.7957" stroke="white" stroke-miterlimit="10" stroke-linecap="round" stroke-linejoin="round"/>
<path d="M15.3464 12.7136H27.2357" stroke="#DD2032" stroke-miterlimit="10" stroke-linecap="round" stroke-linejoin="round"/>
<path d="M4.85571 27.4587H17.0364" stroke="#DD2032" stroke-miterlimit="10" stroke-linecap="round" stroke-linejoin="round"/>
<path d="M2 42.1458H14.1807" stroke="#DD2032" stroke-miterlimit="10" stroke-linecap="round" stroke-linejoin="round"/>
<path d="M5.20508 56.8904H17.0361" stroke="#DD2032" stroke-miterlimit="10" stroke-linecap="round" stroke-linejoin="round"/>
<path d="M15.9287 71.6355H27.4683" stroke="#DD2032" stroke-miterlimit="10" stroke-linecap="round" stroke-linejoin="round"/>
<path d="M45.8942 10.9653H41.1735C40.4741 10.9653 40.0661 11.723 40.4158 12.3058L45.4862 21.1062C45.8359 21.689 46.7101 21.689 47.0598 21.1062L52.1302 12.3058C52.4799 11.723 52.072 10.9653 51.3726 10.9653H47.0598" fill="#DD2032"/>
<path d="M45.894 73.0342H41.1732C40.4739 73.0342 40.0659 72.2766 40.4156 71.6938L45.486 62.8934C45.8357 62.3106 46.7099 62.3106 47.0596 62.8934L52.13 71.6938C52.4797 72.2766 52.0717 73.0342 51.3723 73.0342H47.0596" fill="#DD2032"/>
</svg>
