<svg width="88" height="84" viewBox="0 0 88 84" fill="none" xmlns="http://www.w3.org/2000/svg">
<rect x="0.899902" y="0.500122" width="86.0857" height="83" rx="19.9" stroke="#DD2032"/>
<path d="M33.3998 34.2002L27.9998 44.4002" stroke="white" stroke-miterlimit="10" stroke-linecap="round" stroke-linejoin="round"/>
<path d="M57.9998 34.8002L54.9998 40.2002" stroke="white" stroke-miterlimit="10" stroke-linecap="round" stroke-linejoin="round"/>
<path d="M50.7998 32.4001L45.9998 41.4001" stroke="white" stroke-miterlimit="10" stroke-linecap="round" stroke-linejoin="round"/>
<path d="M26.0871 47.1952C28.768 49.1767 33.7218 52.9067 39.3751 48.6522C45.0866 44.3977 48.5251 41.5419 60.4144 44.6891C64.2026 45.4467 66.0093 43.64 64.8437 40.2597C63.6781 36.8795 57.9083 27.0883 39.4916 28.7202C21.0166 30.352 21.9491 40.8426 23.2896 43.4069C24.63 45.9713 26.0871 47.1952 26.0871 47.1952Z" stroke="white" stroke-miterlimit="10" stroke-linecap="round" stroke-linejoin="round"/>
<path d="M17.986 40.5509C17.9277 45.3299 17.578 49.8175 19.851 53.6058C22.1239 57.3357 27.7188 60.4829 35.1788 60.4829C42.6387 60.4829 44.6203 56.6364 46.3687 55.7039C48.1171 54.7131 51.4974 53.1395 56.2764 54.5965C61.0554 56.0536 64.8437 57.5106 67.0583 55.5873C69.273 53.6641 69.3313 50.2838 69.273 42.7073C69.2147 36.0633 62.3376 24.6403 42.289 24.6403C22.2405 24.6403 17.6363 35.4222 17.986 40.5509Z" stroke="white" stroke-miterlimit="10" stroke-linecap="round" stroke-linejoin="round"/>
<path d="M18.0447 40.4927C18.744 44.9803 24.1642 54.3635 32.3235 54.6549C39.3171 54.888 42.2312 51.9157 44.1544 50.2839C46.7188 48.1275 50.7985 46.5539 56.8596 48.0692C62.9208 49.5845 70.7887 52.382 69.0403 40.3179" stroke="white" stroke-miterlimit="10" stroke-linecap="round" stroke-linejoin="round"/>
<path d="M42.3997 32.4001L35.1997 46.2001" stroke="white" stroke-miterlimit="10" stroke-linecap="round" stroke-linejoin="round"/>
</svg>
