<svg width="88" height="85" viewBox="0 0 88 85" fill="none" xmlns="http://www.w3.org/2000/svg">
<path fill-rule="evenodd" clip-rule="evenodd" d="M18.6573 78.5651L43.2578 78.5651L43.2578 83.9968L18.6573 83.9968C8.50573 83.9968 0.255391 75.8566 0.0776803 65.7474C0.0702149 65.7215 0.0664002 65.6953 0.0664002 65.6688C0.0664002 65.6448 0.0695206 65.6211 0.0756432 65.5976C0.0752885 65.5608 0.0750367 65.524 0.0748956 65.4872L0.127607 65.4872C0.391912 65.1012 1.48108 64.812 2.78454 64.812C4.088 64.812 5.17717 65.1012 5.44147 65.4872L5.50672 65.4872C5.54595 72.7166 11.4186 78.5651 18.6573 78.5651Z" fill="#3E9CCC"/>
<path fill-rule="evenodd" clip-rule="evenodd" d="M5.50964 20.9216L5.50964 22.9971L0.0778809 22.9971L0.0778808 20.9216C0.0778803 9.38362 9.43127 0.030212 20.9693 0.0302115L42.114 0.0302106C42.1488 0.0257664 42.1839 0.0235062 42.2194 0.0235062C43.042 0.0235062 43.7088 1.24046 43.7088 2.74165C43.7088 4.23558 43.0484 5.44802 42.2313 5.4597L42.2313 5.46197L20.9693 5.46197C12.4312 5.46197 5.50964 12.3835 5.50964 20.9216Z" fill="#F1A926"/>
<path fill-rule="evenodd" clip-rule="evenodd" d="M0.0778809 25.0496L0.0778825 63.4331L5.50964 63.4331L5.50964 25.0496L0.0778809 25.0496Z" fill="#FDF53F"/>
<path fill-rule="evenodd" clip-rule="evenodd" d="M66.2316 5.4552H44.6265V0.0234375H66.2316C77.7696 0.0234375 87.123 9.37683 87.123 20.9148V41.058C87.1245 41.0699 87.1253 41.0818 87.1253 41.0937C87.1253 41.1057 87.1245 41.1176 87.123 41.1295V41.1474H87.1201C87.0322 41.5956 85.8512 41.9505 84.4072 41.9505C82.9632 41.9505 81.7821 41.5956 81.6943 41.1474H81.6912V41.1285C81.6898 41.117 81.689 41.1054 81.689 41.0937C81.689 41.0821 81.6898 41.0705 81.6912 41.059V20.9148C81.6912 12.3767 74.7698 5.4552 66.2316 5.4552Z" fill="#DA3344"/>
<path fill-rule="evenodd" clip-rule="evenodd" d="M81.6901 63.1017L81.6901 43.2114L87.1218 43.2114L87.1218 63.1017C87.1218 74.6397 77.7684 83.9931 66.2304 83.9931L45.7215 83.9931C45.6473 84.0138 45.5713 84.0246 45.4939 84.0246C44.6714 84.0246 44.0045 82.8076 44.0045 81.3065C44.0045 79.9182 44.5748 78.7731 45.3111 78.6086L45.3111 78.5613L66.2304 78.5613C74.7685 78.5613 81.6901 71.6398 81.6901 63.1017Z" fill="#FDFDFD"/>
<path d="M67.9921 57.2219C67.9921 54.621 67.194 53.9716 65.6643 53.0615C60.8092 50.1362 55.422 48.251 50.0348 46.5609C45.8447 45.2607 41.5217 43.9606 37.0656 43.9606C28.4194 43.8956 23.3833 51.8141 22.8992 58.587C22.7709 60.3826 22.4765 61.4167 23.0322 64.1125C24.1629 66.9078 25.7591 68.2729 28.752 68.663C32.676 69.183 36.467 69.508 40.391 68.728C42.9849 68.2729 45.1796 67.4929 47.0419 65.6727C47.84 64.8926 48.6381 64.1775 49.3697 63.3975C51.631 60.9922 54.3579 60.6672 57.3507 61.7723C60.0111 62.7474 62.5384 63.2674 65.3983 61.8373C67.5266 60.7972 68.2582 59.3671 67.9921 57.2219Z" stroke="white" stroke-width="0.737002" stroke-miterlimit="10" stroke-linecap="round" stroke-linejoin="round"/>
<path d="M36.1691 46.3083C30.7147 46.3083 27.9694 50.3026 26.2611 54.6833C25.1678 57.3891 25.7145 58.9996 28.311 60.1592C33.1625 62.2852 38.0824 61.9631 42.5922 59.4506C46.0771 57.5179 45.8038 54.8122 42.3189 53.0727C40.4739 52.1708 38.3557 51.6554 38.834 48.8853C39.1073 47.4035 37.5473 46.5376 36.1691 46.3083Z" stroke="white" stroke-width="0.737002" stroke-miterlimit="10" stroke-linecap="round" stroke-linejoin="round"/>
<path d="M67.9006 56.4448C66.6996 56.3146 65.5968 57.2911 64.7961 57.812C63.1947 58.8536 61.7268 58.9187 60.0587 58.0724C58.791 57.4214 57.4565 56.7052 56.0553 56.4448C52.7191 55.7938 50.3171 57.1609 47.9818 59.5697C43.2444 64.5826 32.969 65.8846 26.6302 62.955C25.3625 62.3691 23.9743 61.0017 22.7065 60.6111" stroke="white" stroke-width="0.737002" stroke-miterlimit="10" stroke-linecap="round" stroke-linejoin="round"/>
<path d="M63.8157 54.4233C62.544 53.1391 49.0281 48.9699 44.2071 47.7018C43.3923 47.5016 41.8985 47.0345 41.4911 48.6362C41.2874 49.704 41.8306 50.5716 42.8491 50.5716C45.9726 50.6384 47.3985 52.8408 48.7565 55.1099C53.8491 52.5738 58.3224 54.202 63.2112 55.4033" stroke="white" stroke-width="0.737002" stroke-miterlimit="10" stroke-linecap="round" stroke-linejoin="round"/>
<path d="M80.0205 27.076L71.8596 31.7877L71.8596 22.3643L80.0205 27.076Z" fill="#DA3344"/>
<path d="M29.8072 22.1724V14.7492H24.5526V22.1724H25.6786V15.7605H28.6812V22.1724H29.8072ZM35.7752 19.5034C35.7752 18.4921 35.598 17.9082 35.1601 17.4495C34.7639 17.0429 34.2114 16.824 33.5754 16.824C32.9394 16.824 32.3973 17.0429 32.0011 17.4495C31.5528 17.9187 31.3756 18.4921 31.3756 19.5242C31.3756 20.5668 31.5528 21.1402 32.0011 21.6094C32.3973 22.016 32.9394 22.2349 33.5754 22.2349C34.2114 22.2349 34.7639 22.016 35.1601 21.6094C35.6084 21.1402 35.7752 20.5668 35.7752 19.5034ZM34.7222 19.5451C34.7222 20.1602 34.6492 20.6294 34.399 20.9317C34.2114 21.1506 33.9299 21.2862 33.5754 21.2862C33.2418 21.2862 32.9707 21.1715 32.783 20.9526C32.5432 20.6815 32.439 20.2645 32.439 19.5659C32.439 18.9404 32.5015 18.4504 32.7622 18.1272C32.9498 17.9082 33.2209 17.7727 33.5754 17.7727C33.9299 17.7727 34.2009 17.9082 34.3886 18.1168C34.6597 18.4191 34.7222 18.8883 34.7222 19.5451ZM41.221 22.1724V16.8865H37.6033V19.0863C37.6033 21.1298 37.0612 21.234 36.6024 21.234H36.4356V22.1724H36.9361C37.9682 22.1724 38.625 21.5885 38.625 19.347V17.8144H40.1576V22.1724H41.221ZM47.1498 22.1724V16.8865H46.0864V18.9925H43.9804V16.8865H42.9169V22.1724H43.9804V19.9204H46.0864V22.1724H47.1498ZM52.7313 22.1724V18.638C52.7313 17.4391 51.9911 16.824 50.521 16.824C50.0206 16.824 49.6453 16.8865 49.3429 17.0325C49.0823 17.1472 48.9468 17.2723 48.6548 17.585L49.3534 18.2419C49.5097 18.0438 49.6244 17.9395 49.7808 17.8665C49.9685 17.7727 50.1874 17.731 50.4898 17.731C51.3238 17.731 51.6783 18.0229 51.6783 18.711V19.0968H50.2604C49.1344 19.0968 48.4463 19.6702 48.4463 20.6294C48.4463 21.6511 49.1031 22.2245 50.2813 22.2245C50.9068 22.2245 51.2508 22.1307 51.6887 21.6928V22.1724H52.7313ZM51.6783 20.2645C51.6783 21.036 51.3447 21.3487 50.521 21.3487C49.8017 21.3487 49.4785 21.1089 49.4785 20.5981C49.4785 20.0976 49.8017 19.8474 50.4272 19.8474H51.6783V20.2645ZM57.1651 19.347H55.9244C55.3719 19.347 55.0591 19.0446 55.0591 18.5546C55.0591 18.0542 55.3719 17.7414 55.9244 17.7414H57.1651V19.347ZM55.1842 22.1724L56.1851 20.2019H57.1547V22.1724H58.2181V16.8865H55.7263C54.7046 16.8865 54.0165 17.5538 54.0165 18.5025C54.0165 19.2636 54.444 19.8161 55.1112 20.0038L53.9644 22.1724H55.1842ZM22.9079 33.1724V27.8865H18.6751V33.1724H19.7385V28.8144H21.8445V33.1724H22.9079ZM28.9169 30.5451C28.9169 29.9195 28.8856 29.5651 28.8022 29.1897C28.5937 28.2723 27.9473 27.824 27.009 27.824C26.373 27.824 26.0706 28.0012 25.6432 28.4391V27.8865H24.6006V35.3096H25.664V32.6302C26.0602 33.0681 26.4147 33.2349 27.0194 33.2349C27.5615 33.2349 28.0203 33.0681 28.333 32.7553C28.7501 32.3383 28.9169 31.6919 28.9169 30.5451ZM27.8639 30.5242C27.8639 31.7857 27.5511 32.2862 26.7692 32.2862C25.9872 32.2862 25.664 31.7857 25.664 30.5659C25.664 29.9612 25.7266 29.5651 25.8621 29.2836C26.0289 28.9395 26.3209 28.7727 26.7587 28.7727C27.5511 28.7727 27.8639 29.2627 27.8639 30.5242ZM34.5127 30.5034C34.5127 29.4921 34.3355 28.9082 33.8976 28.4495C33.5014 28.0429 32.9489 27.824 32.3129 27.824C31.6769 27.824 31.1348 28.0429 30.7386 28.4495C30.2903 28.9187 30.1131 29.4921 30.1131 30.5242C30.1131 31.5668 30.2903 32.1402 30.7386 32.6094C31.1348 33.016 31.6769 33.2349 32.3129 33.2349C32.9489 33.2349 33.5014 33.016 33.8976 32.6094C34.3459 32.1402 34.5127 31.5668 34.5127 30.5034ZM33.4597 30.5451C33.4597 31.1602 33.3867 31.6294 33.1365 31.9317C32.9489 32.1506 32.6674 32.2862 32.3129 32.2862C31.9793 32.2862 31.7082 32.1715 31.5205 31.9526C31.2807 31.6815 31.1765 31.2645 31.1765 30.5659C31.1765 29.9404 31.239 29.4504 31.4997 29.1272C31.6874 28.9082 31.9584 28.7727 32.3129 28.7727C32.6674 28.7727 32.9384 28.9082 33.1261 29.1168C33.3972 29.4191 33.4597 29.8883 33.4597 30.5451ZM36.1973 33.1724L38.2303 30.4304V33.1724H39.3042V30.4304L41.3372 33.1724H42.6196L40.4823 30.3678L42.4632 27.8865H41.2225L39.3042 30.4095V27.8865H38.2303V30.4095L36.3224 27.8865H35.0817L37.0626 30.3678L34.9149 33.1724H36.1973ZM47.3555 33.1724V29.638C47.3555 28.4391 46.6153 27.824 45.1453 27.824C44.6448 27.824 44.2695 27.8865 43.9672 28.0325C43.7065 28.1472 43.571 28.2723 43.2791 28.585L43.9776 29.2419C44.134 29.0438 44.2487 28.9395 44.405 28.8665C44.5927 28.7727 44.8116 28.731 45.114 28.731C45.9481 28.731 46.3025 29.0229 46.3025 29.711V30.0968H44.8846C43.7586 30.0968 43.0705 30.6702 43.0705 31.6294C43.0705 32.6511 43.7274 33.2245 44.9055 33.2245C45.531 33.2245 45.8751 33.1307 46.313 32.6928V33.1724H47.3555ZM46.3025 31.2645C46.3025 32.036 45.9689 32.3487 45.1453 32.3487C44.4259 32.3487 44.1027 32.1089 44.1027 31.5981C44.1027 31.0976 44.4259 30.8474 45.0514 30.8474H46.3025V31.2645ZM53.3115 30.5451C53.3115 29.9195 53.2802 29.5651 53.1968 29.1897C52.9883 28.2723 52.3419 27.824 51.4036 27.824C50.7676 27.824 50.4652 28.0012 50.0378 28.4391V27.8865H48.9952V35.3096H50.0586V32.6302C50.4548 33.0681 50.8093 33.2349 51.414 33.2349C51.9561 33.2349 52.4149 33.0681 52.7276 32.7553C53.1447 32.3383 53.3115 31.6919 53.3115 30.5451ZM52.2585 30.5242C52.2585 31.7857 51.9457 32.2862 51.1638 32.2862C50.3818 32.2862 50.0586 31.7857 50.0586 30.5659C50.0586 29.9612 50.1212 29.5651 50.2567 29.2836C50.4235 28.9395 50.7155 28.7727 51.1533 28.7727C51.9457 28.7727 52.2585 29.2627 52.2585 30.5242ZM55.8526 33.1724V30.4304L57.9899 33.1724H59.2931L57.0307 30.3678L59.1367 27.8865H57.8648L55.8526 30.4095V27.8865H54.7787V33.1724H55.8526ZM64.0225 33.1724V29.638C64.0225 28.4391 63.2822 27.824 61.8122 27.824C61.3118 27.824 60.9364 27.8865 60.6341 28.0325C60.3735 28.1472 60.2379 28.2723 59.946 28.585L60.6445 29.2419C60.8009 29.0438 60.9156 28.9395 61.072 28.8665C61.2596 28.7727 61.4786 28.731 61.7809 28.731C62.615 28.731 62.9695 29.0229 62.9695 29.711V30.0968H61.5516C60.4256 30.0968 59.7375 30.6702 59.7375 31.6294C59.7375 32.6511 60.3943 33.2245 61.5724 33.2245C62.198 33.2245 62.542 33.1307 62.9799 32.6928V33.1724H64.0225ZM62.9695 31.2645C62.9695 32.036 62.6358 32.3487 61.8122 32.3487C61.0928 32.3487 60.7696 32.1089 60.7696 31.5981C60.7696 31.0976 61.0928 30.8474 61.7184 30.8474H62.9695V31.2645Z" fill="#DA3344"/>
</svg>
