<svg width="89" height="84" viewBox="0 0 89 84" fill="none" xmlns="http://www.w3.org/2000/svg">
<rect x="2.30005" y="0.500122" width="86.0857" height="83" rx="13.9" stroke="#DD2032" stroke-dasharray="6.6 6.6"/>
<rect x="2.49976" y="37.5" width="46" height="46" rx="13.9" stroke="white"/>
<path d="M11.927 55.6C12.007 55.98 12.047 56.5933 12.047 57.44C12.047 58.2867 12.007 58.9 11.927 59.28C11.8537 59.66 11.6537 60.0133 11.327 60.34C10.847 60.82 10.2337 61.06 9.48702 61.06C8.74036 61.06 8.12702 60.82 7.64702 60.34C7.32036 60.0133 7.11702 59.66 7.03702 59.28C6.96369 58.9 6.92702 58.2867 6.92702 57.44C6.92702 56.5933 6.96369 55.98 7.03702 55.6C7.11702 55.22 7.32036 54.8667 7.64702 54.54C8.12702 54.06 8.74036 53.82 9.48702 53.82C10.2337 53.82 10.847 54.06 11.327 54.54C11.6537 54.8667 11.8537 55.22 11.927 55.6ZM10.887 58.95C10.9404 58.6633 10.967 58.16 10.967 57.44C10.967 56.72 10.9404 56.2167 10.887 55.93C10.8337 55.6367 10.7204 55.4 10.547 55.22C10.267 54.9267 9.91369 54.78 9.48702 54.78C9.06036 54.78 8.70702 54.9267 8.42702 55.22C8.25369 55.4067 8.14036 55.6467 8.08702 55.94C8.03369 56.2267 8.00702 56.7267 8.00702 57.44C8.00702 58.1533 8.03369 58.6533 8.08702 58.94C8.14036 59.2267 8.25369 59.4633 8.42702 59.65C8.71369 59.95 9.06702 60.1 9.48702 60.1C9.90702 60.1 10.2604 59.95 10.547 59.65C10.7204 59.47 10.8337 59.2367 10.887 58.95ZM17.6819 58.46C17.6819 59.5067 17.4919 60.2233 17.1119 60.61C16.8119 60.91 16.4019 61.06 15.8819 61.06C15.3152 61.06 14.8719 60.8667 14.5519 60.48V63.05H13.5319V55.93H14.5319V56.47C14.8652 56.07 15.3119 55.87 15.8719 55.87C16.3985 55.87 16.8119 56.02 17.1119 56.32C17.4919 56.7067 17.6819 57.42 17.6819 58.46ZM16.6219 59.11C16.6485 58.93 16.6619 58.7133 16.6619 58.46C16.6619 58.2067 16.6485 57.99 16.6219 57.81C16.6019 57.63 16.5552 57.4567 16.4819 57.29C16.4152 57.1233 16.3085 56.9967 16.1619 56.91C16.0152 56.8233 15.8319 56.78 15.6119 56.78C15.3852 56.78 15.1985 56.8233 15.0519 56.91C14.9052 56.9967 14.7952 57.1233 14.7219 57.29C14.6552 57.4567 14.6085 57.63 14.5819 57.81C14.5619 57.99 14.5519 58.2067 14.5519 58.46C14.5519 58.7133 14.5619 58.93 14.5819 59.11C14.6085 59.29 14.6552 59.4667 14.7219 59.64C14.7952 59.8067 14.9052 59.9333 15.0519 60.02C15.2052 60.1067 15.3919 60.15 15.6119 60.15C15.8319 60.15 16.0152 60.1067 16.1619 60.02C16.3085 59.9333 16.4152 59.8067 16.4819 59.64C16.5552 59.4667 16.6019 59.29 16.6219 59.11ZM21.1792 61H20.5692C20.1225 61 19.7792 60.8633 19.5392 60.59C19.2992 60.3167 19.1792 59.9833 19.1792 59.59V56.71H18.5992V55.93H19.1792V54.48H20.1992V55.93H21.1792V56.71H20.1992V59.54C20.1992 59.9333 20.3859 60.13 20.7592 60.13H21.1792V61ZM23.4972 61H22.4772V55.93H23.4972V61ZM23.5272 54.93H22.4472V53.85H23.5272V54.93ZM30.1339 58.24C30.1339 58.7067 30.0839 59.0967 29.9839 59.41C29.8906 59.7167 29.7272 59.9967 29.4939 60.25C28.9806 60.79 28.3272 61.06 27.5339 61.06C26.7872 61.06 26.1739 60.82 25.6939 60.34C25.3739 60.0133 25.1739 59.66 25.0939 59.28C25.0139 58.8933 24.9739 58.28 24.9739 57.44C24.9739 56.6 25.0139 55.99 25.0939 55.61C25.1739 55.2233 25.3739 54.8667 25.6939 54.54C26.1739 54.06 26.7872 53.82 27.5339 53.82C28.2539 53.82 28.8372 54.0267 29.2839 54.44C29.7372 54.8533 30.0139 55.38 30.1139 56.02H29.0339C28.9406 55.6267 28.7639 55.3233 28.5039 55.11C28.2506 54.89 27.9272 54.78 27.5339 54.78C27.1072 54.78 26.7539 54.9267 26.4739 55.22C26.3006 55.4067 26.1872 55.6467 26.1339 55.94C26.0806 56.2267 26.0539 56.7267 26.0539 57.44C26.0539 58.1533 26.0806 58.6567 26.1339 58.95C26.1872 59.2367 26.3006 59.4733 26.4739 59.66C26.7539 59.9533 27.1072 60.1 27.5339 60.1C28.0272 60.1 28.4172 59.93 28.7039 59.59C28.9372 59.3233 29.0539 58.95 29.0539 58.47V58.07H27.5339V57.15H30.1339V58.24ZM35.168 56.35L34.398 57.12C34.1714 56.8933 33.918 56.78 33.638 56.78C33.3514 56.78 33.1114 56.8867 32.918 57.1C32.7247 57.3067 32.628 57.58 32.628 57.92V61H31.608V55.93H32.608V56.48C32.7414 56.3 32.928 56.1533 33.168 56.04C33.4147 55.9267 33.678 55.87 33.958 55.87C34.4447 55.87 34.848 56.03 35.168 56.35ZM37.0226 61H36.0026V55.93H37.0226V61ZM37.0526 54.93H35.9726V53.85H37.0526V54.93ZM40.6293 61H39.9993C39.5393 61 39.1926 60.87 38.9593 60.61C38.726 60.3433 38.6093 60.0067 38.6093 59.6V53.88H39.6293V59.54C39.6293 59.74 39.6693 59.89 39.7493 59.99C39.836 60.0833 39.9793 60.13 40.1793 60.13H40.6293V61ZM43.7348 61H43.1048C42.6448 61 42.2981 60.87 42.0648 60.61C41.8314 60.3433 41.7148 60.0067 41.7148 59.6V53.88H42.7348V59.54C42.7348 59.74 42.7748 59.89 42.8548 59.99C42.9414 60.0833 43.0848 60.13 43.2848 60.13H43.7348V61ZM20.365 71H15.815V63.88H20.365V64.85H16.895V66.93H19.855V67.89H16.895V70.03H20.365V71ZM23.7103 71H23.0803C22.6203 71 22.2737 70.87 22.0403 70.61C21.807 70.3433 21.6903 70.0067 21.6903 69.6V63.88H22.7103V69.54C22.7103 69.74 22.7503 69.89 22.8303 69.99C22.917 70.0833 23.0603 70.13 23.2603 70.13H23.7103V71ZM25.8458 71H24.8258V65.93H25.8458V71ZM25.8758 64.93H24.7958V63.85H25.8758V64.93ZM29.5825 71H28.9725C28.5259 71 28.1825 70.8633 27.9425 70.59C27.7025 70.3167 27.5825 69.9833 27.5825 69.59V66.71H27.0025V65.93H27.5825V64.48H28.6025V65.93H29.5825V66.71H28.6025V69.54C28.6025 69.9333 28.7892 70.13 29.1625 70.13H29.5825V71ZM34.8717 68.76H31.5817C31.5817 69.2067 31.6917 69.5567 31.9117 69.81C32.1383 70.0567 32.4583 70.18 32.8717 70.18C33.145 70.18 33.3717 70.14 33.5517 70.06C33.7317 69.98 33.915 69.8467 34.1017 69.66L34.7517 70.27C34.4783 70.5433 34.1983 70.7433 33.9117 70.87C33.6317 70.9967 33.2783 71.06 32.8517 71.06C32.1583 71.06 31.605 70.8533 31.1917 70.44C30.7783 70.0267 30.5717 69.3667 30.5717 68.46C30.5717 67.6467 30.765 67.0133 31.1517 66.56C31.5383 66.1 32.0617 65.87 32.7217 65.87C33.395 65.87 33.9217 66.0933 34.3017 66.54C34.6817 66.9867 34.8717 67.5833 34.8717 68.33V68.76ZM33.8617 68.05C33.8417 67.75 33.795 67.52 33.7217 67.36C33.5283 66.9333 33.195 66.72 32.7217 66.72C32.2417 66.72 31.905 66.9333 31.7117 67.36C31.6317 67.5333 31.5883 67.7633 31.5817 68.05H33.8617Z" fill="#DD2032"/>
<path d="M55.3005 31.6326C55.3005 31.9088 55.5243 32.1326 55.8005 32.1326L60.3005 32.1326C60.5766 32.1326 60.8005 31.9088 60.8005 31.6326C60.8005 31.3565 60.5766 31.1326 60.3005 31.1326L56.3005 31.1326L56.3005 27.1326C56.3005 26.8565 56.0766 26.6326 55.8005 26.6326C55.5243 26.6326 55.3005 26.8565 55.3005 27.1326L55.3005 31.6326ZM65.4797 21.2463L55.4469 31.2791L56.154 31.9862L66.1868 21.9534L65.4797 21.2463Z" fill="#DD2032"/>
</svg>
