<svg width="88" height="84" viewBox="0 0 88 84" fill="none" xmlns="http://www.w3.org/2000/svg">
<rect x="1.2998" y="0.5" width="86.0857" height="83" rx="19.9" stroke="#DD2032"/>
<path d="M33.909 48H30.6562V19.4473L24.6475 24.7332V21.0286L30.6562 15.8331H33.909V48Z" fill="white"/>
<path d="M61.6241 48H43.869V45.1086L56.5641 28.9799C57.7689 27.4138 58.3712 25.8325 58.3712 24.2362C58.3712 22.4893 57.8743 21.0888 56.8804 20.0347C55.8864 18.9805 54.516 18.4534 52.7691 18.4534C51.1427 18.4534 49.8024 18.9353 48.7483 19.8991C47.6941 20.8629 47.167 22.3237 47.167 24.2814H43.9142C43.9142 21.7213 44.7274 19.6281 46.3538 18.0016C47.9802 16.3752 50.1187 15.562 52.7691 15.562C55.4196 15.562 57.558 16.3602 59.1844 17.9565C60.8109 19.5226 61.6241 21.6159 61.6241 24.2362C61.6241 25.4711 61.4283 26.5704 61.0367 27.5342C60.6452 28.498 59.9826 29.5673 59.0489 30.7419L47.7995 45.1086H61.6241V48Z" fill="white"/>
<path d="M26.4489 67.0003H25.3229V60.5884H22.3203V67.0003H21.1943V59.5771H26.4489V67.0003Z" fill="#DA3344"/>
<path d="M32.5941 64.3521C32.5941 65.4434 32.3961 66.1905 31.9999 66.5937C31.6871 66.9064 31.2597 67.0628 30.7175 67.0628C30.1267 67.0628 29.6645 66.8613 29.3309 66.4581V69.1376H28.2675V61.7144H29.31V62.2774C29.6576 61.8604 30.1232 61.6519 30.7071 61.6519C31.2562 61.6519 31.6871 61.8083 31.9999 62.121C32.3961 62.5242 32.5941 63.2679 32.5941 64.3521ZM31.489 65.0298C31.5168 64.8421 31.5307 64.6163 31.5307 64.3521C31.5307 64.088 31.5168 63.8621 31.489 63.6745C31.4682 63.4868 31.4195 63.3061 31.3431 63.1323C31.2736 62.9586 31.1623 62.8265 31.0094 62.7361C30.8565 62.6458 30.6654 62.6006 30.436 62.6006C30.1997 62.6006 30.0051 62.6458 29.8522 62.7361C29.6993 62.8265 29.5846 62.9586 29.5081 63.1323C29.4386 63.3061 29.39 63.4868 29.3622 63.6745C29.3413 63.8621 29.3309 64.088 29.3309 64.3521C29.3309 64.6163 29.3413 64.8421 29.3622 65.0298C29.39 65.2175 29.4386 65.4017 29.5081 65.5824C29.5846 65.7561 29.6993 65.8882 29.8522 65.9786C30.012 66.0689 30.2067 66.1141 30.436 66.1141C30.6654 66.1141 30.8565 66.0689 31.0094 65.9786C31.1623 65.8882 31.2736 65.7561 31.3431 65.5824C31.4195 65.4017 31.4682 65.2175 31.489 65.0298Z" fill="#DA3344"/>
<path d="M38.19 64.3521C38.19 64.8387 38.1448 65.2453 38.0545 65.5719C37.9641 65.8986 37.8008 66.1871 37.5645 66.4373C37.1613 66.8543 36.6331 67.0628 35.9797 67.0628C35.3334 67.0628 34.8086 66.8543 34.4055 66.4373C34.1691 66.1871 34.0058 65.8986 33.9154 65.5719C33.8251 65.2453 33.7799 64.8387 33.7799 64.3521C33.7799 63.8726 33.8251 63.4694 33.9154 63.1428C34.0058 62.8091 34.1691 62.5207 34.4055 62.2774C34.8086 61.8604 35.3334 61.6519 35.9797 61.6519C36.6331 61.6519 37.1613 61.8604 37.5645 62.2774C37.8008 62.5207 37.9641 62.8091 38.0545 63.1428C38.1448 63.4694 38.19 63.8726 38.19 64.3521ZM36.7617 65.8013C37.0049 65.558 37.1266 65.075 37.1266 64.3521C37.1266 63.6293 37.0049 63.1462 36.7617 62.903C36.5601 62.7014 36.2995 62.6006 35.9797 62.6006C35.667 62.6006 35.4098 62.7014 35.2082 62.903C34.965 63.1462 34.8433 63.6293 34.8433 64.3521C34.8433 65.075 34.965 65.558 35.2082 65.8013C35.4168 66.0098 35.6739 66.1141 35.9797 66.1141C36.2925 66.1141 36.5532 66.0098 36.7617 65.8013Z" fill="#DA3344"/>
<path d="M43.1017 62.6423H40.735V67.0003H39.6716V61.7144H43.1017V62.6423Z" fill="#DA3344"/>
<path d="M48.3957 64.3521C48.3957 65.4434 48.1976 66.1905 47.8014 66.5937C47.4886 66.9064 47.0612 67.0628 46.519 67.0628C45.9282 67.0628 45.466 66.8613 45.1324 66.4581V69.1376H44.069V61.7144H45.1116V62.2774C45.4591 61.8604 45.9248 61.6519 46.5086 61.6519C47.0577 61.6519 47.4886 61.8083 47.8014 62.121C48.1976 62.5242 48.3957 63.2679 48.3957 64.3521ZM47.2905 65.0298C47.3183 64.8421 47.3322 64.6163 47.3322 64.3521C47.3322 64.088 47.3183 63.8621 47.2905 63.6745C47.2697 63.4868 47.221 63.3061 47.1446 63.1323C47.0751 62.9586 46.9639 62.8265 46.8109 62.7361C46.658 62.6458 46.4669 62.6006 46.2375 62.6006C46.0012 62.6006 45.8066 62.6458 45.6537 62.7361C45.5008 62.8265 45.3861 62.9586 45.3096 63.1323C45.2401 63.3061 45.1915 63.4868 45.1637 63.6745C45.1428 63.8621 45.1324 64.088 45.1324 64.3521C45.1324 64.6163 45.1428 64.8421 45.1637 65.0298C45.1915 65.2175 45.2401 65.4017 45.3096 65.5824C45.3861 65.7561 45.5008 65.8882 45.6537 65.9786C45.8136 66.0689 46.0082 66.1141 46.2375 66.1141C46.4669 66.1141 46.658 66.0689 46.8109 65.9786C46.9639 65.8882 47.0751 65.7561 47.1446 65.5824C47.221 65.4017 47.2697 65.2175 47.2905 65.0298Z" fill="#DA3344"/>
<path d="M53.7204 67.0003H52.6779V66.5207C52.4833 66.7153 52.2782 66.8543 52.0628 66.9377C51.8542 67.0211 51.5901 67.0628 51.2704 67.0628C50.6449 67.0628 50.1722 66.903 49.8525 66.5832C49.5745 66.2913 49.4355 65.9125 49.4355 65.4468C49.4355 64.9881 49.5919 64.6197 49.9046 64.3417C50.2243 64.0637 50.6796 63.9247 51.2704 63.9247H52.657V63.5494C52.657 63.2088 52.5667 62.9586 52.386 62.7987C52.2052 62.6388 51.9098 62.5589 51.4998 62.5589C51.2217 62.5589 50.9959 62.6006 50.8221 62.684C50.6553 62.7605 50.4954 62.8925 50.3425 63.0802L49.6544 62.4234C49.8977 62.1384 50.1583 61.9403 50.4363 61.8291C50.7213 61.7109 51.0897 61.6519 51.5415 61.6519C52.9941 61.6519 53.7204 62.2566 53.7204 63.4659V67.0003ZM52.657 65.0924V64.6649H51.4372C50.7908 64.6649 50.4676 64.9186 50.4676 65.426C50.4676 65.9264 50.8012 66.1766 51.4685 66.1766C51.8925 66.1766 52.2122 66.0759 52.4277 65.8743C52.5806 65.7283 52.657 65.4677 52.657 65.0924Z" fill="#DA3344"/>
<path d="M60.6147 67.0003H59.5513V63.6119L58.3315 66.0307H57.6642L56.4236 63.6119V67.0003H55.3601V61.7144H56.4131L57.9978 64.863L59.5721 61.7144H60.6147V67.0003Z" fill="#DA3344"/>
<path d="M67.5686 67.0003H66.5052V63.6119L65.2854 66.0307H64.6181L63.3774 63.6119V67.0003H62.314V61.7144H63.367L64.9517 64.863L66.526 61.7144H67.5686V67.0003Z" fill="#DA3344"/>
</svg>
