<svg width="88" height="85" viewBox="0 0 88 85" fill="none" xmlns="http://www.w3.org/2000/svg">
<rect x="1.29199" y="1.49133" width="86.0434" height="82.9592" rx="19.8983" stroke="#DD2032"/>
<path d="M43.4444 20.7313C44.7203 20.7786 45.3819 20.9203 45.9962 21.3929C46.5633 21.8655 47.1304 23.0941 47.2249 26.3548C47.3194 29.6154 48.0755 31.1276 52.8483 33.6321C57.6211 36.1367 70.4747 42.5162 70.7582 42.658C71.0417 42.7997 73.31 41.8546 74.4914 43.6976C75.5783 45.3988 74.6332 48.1396 72.3649 48.3759C70.9945 48.5177 70.0021 47.5253 69.3878 46.8637C68.9625 46.4384 68.5372 46.0604 68.0174 45.7769C64.0006 43.6976 47.9337 35.5224 46.327 34.6245C44.5313 33.5849 42.8773 32.12 41.9795 29.6154C41.0816 27.1108 40.7981 25.5514 40.4673 24.9843C40.1365 24.4173 40.0893 24.37 39.5694 24.0865C39.0496 23.8029 38.7661 23.4249 38.6243 22.9051C38.4826 22.3853 38.4353 22.149 38.4353 22.149" stroke="white" stroke-width="0.719942" stroke-miterlimit="10" stroke-linecap="round"/>
<path d="M74.1615 47.5253L75.1539 60.8041C75.2011 61.4185 74.7286 61.9855 74.1142 62.08L66.2698 63.1197" stroke="white" stroke-width="0.719942" stroke-miterlimit="10" stroke-linecap="round"/>
<path d="M60.4556 57.2126L61.1644 62.6943L65.9845 63.1668C65.9845 63.1668 64.8976 54.33 64.9449 53.6212C64.9921 52.9123 65.1812 52.3453 67.2604 51.8254C69.3397 51.3529 69.3397 50.077 69.0561 46.6273" stroke="white" stroke-width="0.719942" stroke-miterlimit="10" stroke-linecap="round"/>
<path d="M65.5602 59.4809L60.8818 59.1974" stroke="white" stroke-width="0.719942" stroke-miterlimit="10" stroke-linecap="round"/>
<path d="M66.033 59.4808L74.9643 58.0631" stroke="white" stroke-width="0.719942" stroke-miterlimit="10" stroke-linecap="round"/>
<path d="M19.6755 18.9828L15.0444 19.8806L34.9864 21.6764C35.3171 21.7236 35.6007 21.7709 35.8842 21.9126C36.4513 22.1489 37.869 22.4325 40.8933 21.7236C46.0914 20.5422 41.8384 19.8334 38.9086 20.2587C37.9162 20.4005 19.6755 18.9828 19.6755 18.9828Z" stroke="white" stroke-width="0.719942" stroke-miterlimit="10" stroke-linecap="round" stroke-linejoin="round"/>
<path d="M65.9387 40.1061C65.9387 40.1061 65.8914 38.1213 65.8442 37.1762C65.7969 36.4674 65.6552 34.3409 61.9692 34.1046C58.2833 33.8683 53.3687 33.7266 53.3687 33.7266" stroke="white" stroke-width="0.719942" stroke-miterlimit="10" stroke-linecap="round"/>
<path d="M60.0789 37.318C63.1977 37.3652 65.7023 37.4125 65.7023 37.4125" stroke="white" stroke-width="0.719942" stroke-miterlimit="10" stroke-linecap="round"/>
<path d="M47.9807 37.1289C48.028 37.1289 48.9731 37.0817 50.8633 37.1289" stroke="white" stroke-width="0.719942" stroke-miterlimit="10" stroke-linecap="round"/>
<path d="M40.5153 60.8988C40.5153 60.8988 40.279 59.3393 41.6966 58.347C42.689 57.6854 43.7759 57.0238 47.6981 56.2205C51.6204 55.4171 58.5197 53.1961 60.6935 52.5818C65.9861 50.9751 65.7498 48.6123 64.5684 48.4233L43.7759 45.4934" stroke="white" stroke-width="0.719942" stroke-miterlimit="10" stroke-linecap="round"/>
<path d="M13.1068 60.2842C13.1068 60.2842 12.8232 61.9381 13.3903 62.3162C14.619 63.1668 25.535 66.8527 29.3627 67.2308C33.1905 67.6088 41.0349 67.278 41.5075 66.8527C42.0273 66.3802 41.791 64.5845 41.791 64.5845" stroke="white" stroke-width="0.719942" stroke-miterlimit="10" stroke-linecap="round"/>
<path d="M37.8211 60.8986C37.8211 60.8986 42.1213 62.4108 42.5939 62.7415C43.0664 63.0723 43.0664 64.4428 41.696 64.5373C40.3256 64.6318 29.126 64.8208 26.905 64.2065C24.684 63.5921 12.9645 59.9535 12.5865 59.7172C12.2557 59.5282 12.5865 58.2995 13.4844 57.8742C14.4767 57.4016 18.1154 56.0785 18.1154 56.0785" stroke="white" stroke-width="0.719942" stroke-miterlimit="10" stroke-linecap="round"/>
<path d="M47.7456 56.2203V59.1974" stroke="white" stroke-width="0.719942" stroke-miterlimit="10" stroke-linecap="round"/>
<path d="M50.8638 55.4641V58.4885" stroke="white" stroke-width="0.719942" stroke-miterlimit="10" stroke-linecap="round"/>
<path d="M53.9827 54.6134V57.5905" stroke="white" stroke-width="0.719942" stroke-miterlimit="10" stroke-linecap="round"/>
<path d="M57.1015 53.7631L57.0542 56.6457" stroke="white" stroke-width="0.719942" stroke-miterlimit="10" stroke-linecap="round"/>
<path d="M60.3147 52.7706V55.7005" stroke="white" stroke-width="0.719942" stroke-miterlimit="10" stroke-linecap="round"/>
<path d="M48.5009 60.2842C48.5009 60.2842 48.7845 62.647 47.1778 64.2537C45.9019 65.5296 43.7753 65.8604 41.9324 65.8604" stroke="white" stroke-width="0.719942" stroke-miterlimit="10" stroke-linecap="round"/>
<path d="M20.81 31.8368C13.9106 28.9069 13.5326 21.9131 13.6743 20.8735C13.8161 19.7866 14.8557 19.9284 15.1865 19.8811" stroke="white" stroke-width="0.719942" stroke-miterlimit="10" stroke-linecap="round"/>
<path d="M43.3969 32.2142C43.3969 32.2142 31.4884 30.891 30.2598 30.7965C29.0311 30.702 23.7857 30.513 21.4229 31.6471C19.0129 32.8285 18.2095 34.2935 18.3513 36.1837L17.1699 37.4596L18.3986 39.019C18.3986 39.019 38.6713 43.1775 39.3801 43.2248C40.089 43.3193 42.1682 42.7522 42.7825 42.6577C43.3969 42.5632 61.5431 42.6577 61.5431 42.6577" stroke="white" stroke-width="0.719942" stroke-miterlimit="10" stroke-linecap="round"/>
<path d="M39.9004 43.225L40.0895 44.9269" stroke="white" stroke-width="0.719942" stroke-miterlimit="10" stroke-linecap="round"/>
<path d="M43.5859 42.7052L43.775 45.3043" stroke="white" stroke-width="0.719942" stroke-miterlimit="10" stroke-linecap="round"/>
<path d="M18.3989 36.3256C18.3989 36.3256 36.9704 39.917 38.0573 40.0588C39.1442 40.2005 40.6564 40.3423 41.7433 39.8697C42.8301 39.3972 46.7996 39.8225 47.1304 39.7752C47.4612 39.728 48.1228 38.4048 48.0283 37.2234C47.9338 36.042 47.0359 34.5771 45.0984 34.8606C43.1609 35.1442 41.7433 35.5222 40.4673 36.6564C39.0497 36.5618 19.3913 33.5375 19.3913 33.5375" stroke="white" stroke-width="0.719942" stroke-miterlimit="10" stroke-linecap="round"/>
<path d="M22.4153 31.411L45.8069 34.7189" stroke="white" stroke-width="0.719942" stroke-miterlimit="10" stroke-linecap="round"/>
<path d="M41.2708 27.6777C41.2708 27.6777 33.4736 26.7326 33.0483 26.6381C32.623 26.5436 31.4889 24.4643 30.969 24.228C30.4492 23.9918 13.7207 22.196 13.7207 22.196" stroke="white" stroke-width="0.719942" stroke-miterlimit="10" stroke-linecap="round"/>
<path d="M19.627 25.2206C19.627 25.2206 19.627 26.8273 21.5644 28.1504C23.5964 29.5209 25.3449 30.655 25.3449 30.655" stroke="white" stroke-width="0.719942" stroke-miterlimit="10" stroke-linecap="round"/>
<path d="M14.1458 24.4172C14.1458 24.4172 21.6122 25.3624 22.8881 25.2206C24.164 25.0788 29.4093 23.9919 29.4093 23.9919" stroke="white" stroke-width="0.719942" stroke-miterlimit="10" stroke-linecap="round"/>
<path d="M22.6519 25.0322L22.5574 23.3303" stroke="white" stroke-width="0.719942" stroke-miterlimit="10" stroke-linecap="round"/>
<path d="M36.7816 58.2995C37.3015 58.4413 37.8213 58.205 38.1048 57.7797C38.7191 56.8819 39.617 56.2203 40.6566 55.8895L62.5833 49.2737C63.0558 49.1319 63.0086 48.4231 62.536 48.3286L41.6017 45.1152C40.8456 45.0207 40.0895 45.0207 39.3334 45.1624L21.8961 48.8956C17.6431 49.888 16.5562 51.542 16.3199 52.5343C16.2254 52.9124 16.2104 53.2287 20.1023 54.2017" stroke="white" stroke-width="0.719942" stroke-miterlimit="10" stroke-linecap="round"/>
<path d="M16.3973 52.5663C16.3475 53.961 16.3973 55.5788 17.3443 55.9693L21.1819 57.364" stroke="white" stroke-width="0.719942" stroke-miterlimit="10" stroke-linecap="round"/>
<path d="M34.3755 60.4072C40.8416 61.9715 53.3963 60.065 61.2311 56.7408C62.5999 56.1542 63.4966 54.7365 63.5438 53.221V53.1722C63.5438 52.7811 63.7326 52.4389 64.0158 52.2433C64.7238 51.7545 65.7622 51.2656 65.5262 48.968" stroke="white" stroke-width="0.719942" stroke-miterlimit="10" stroke-linecap="round"/>
<path d="M57.2901 48.99L39.6165 54.3771C35.269 55.7003 35.458 57.685 35.458 57.685" stroke="white" stroke-width="0.359971" stroke-miterlimit="10" stroke-linecap="round"/>
<path d="M48.9254 47.5251L30.9682 52.298C28.3692 53.1013 27.8494 55.8894 27.8494 55.8894" stroke="white" stroke-width="0.359971" stroke-miterlimit="10" stroke-linecap="round"/>
<path d="M40.6086 46.1075L22.3679 50.2661C19.5325 50.9749 19.0127 54.0465 19.0127 54.0465" stroke="white" stroke-width="0.359971" stroke-miterlimit="10" stroke-linecap="round"/>
<path d="M42.021 46.7749C41.9931 46.771 41.966 46.7718 41.9384 46.7778C37.1466 47.8222 26.6156 50.222 24.8249 51.4001C23.1807 52.4838 22.6299 54.1289 22.4713 54.7699C22.4363 54.9114 22.29 55.0024 22.15 54.9615L21.8373 54.8703C21.632 54.8105 21.4569 55.0287 21.5598 55.2162L23.761 59.2255C23.8415 59.3721 24.0435 59.3935 24.1529 59.267L26.704 56.3173C26.8191 56.1842 26.7566 55.9766 26.5872 55.9292L25.9502 55.7508C25.8443 55.7212 25.7735 55.6237 25.7918 55.5153C25.8758 55.0179 26.2812 53.6045 28.2274 52.3452C29.4845 51.4782 40.0077 48.9011 45.1677 47.6785C45.4265 47.6172 45.4046 47.2428 45.1411 47.2064L42.021 46.7749Z" fill="#DD2032"/>
<path d="M50.394 48.0059C50.3605 48.0004 50.3282 48.0015 50.2954 48.0103C45.6753 49.2493 33.561 52.5854 31.7243 53.7628C30.1741 54.7722 29.8341 56.2218 29.76 56.8524C29.7415 57.0097 29.588 57.1273 29.4343 57.0888L29.0849 57.0015C28.8906 56.9529 28.7257 57.1498 28.8077 57.3325L30.7192 61.5935C30.7911 61.7539 31.0054 61.7851 31.1201 61.6518L33.8305 58.5029C33.9477 58.3668 33.8793 58.1549 33.7047 58.113L33.0949 57.9667C32.9846 57.9402 32.9096 57.8409 32.9292 57.7293C33.0162 57.2349 33.4231 55.8719 35.3158 54.6606C36.6608 53.7929 48.9604 50.296 53.6352 48.9978C53.8835 48.9288 53.8579 48.5706 53.6035 48.5291L50.394 48.0059Z" fill="#DD2032"/>
<path d="M47.5691 39.3728H55.965" stroke="white" stroke-width="0.719942" stroke-miterlimit="10" stroke-linecap="round"/>
</svg>
